<?xml version="1.0" encoding="utf-8"?><svg xmlns="http://www.w3.org/2000/svg" xmlns:xlink="http://www.w3.org/1999/xlink" width="1583" height="765" preserveAspectRatio="xMidYMid" viewBox="0 0 1583 765" style="z-index:1;display:block;background-color:rgb(241, 242, 243);animation-play-state:paused" ><g transform="" style="animation-play-state:paused" ><linearGradient id="lg-0.20758967622436175" x1="0" x2="1" y1="0" y2="0" style="animation-play-state:paused" ><stop stop-color="#da3732" offset="0" style="animation-play-state:paused" ></stop>

  
<stop stop-color="#e4762f" offset="1" style="animation-play-state:paused" ></stop></linearGradient>
<path d="M0 0L0 391.4732971191406Q158.3000030517578 534.2937622070312 316.6000061035156 514.49951171875T633.2000122070312 464.68585205078125T949.7999877929688 505.02020263671875T1266.4000244140625 383.9181213378906T1583 396.0107727050781L1583 0z" fill="url(#lg-0.20758967622436175)" opacity="0.4" style="opacity:0.4;animation-play-state:paused" ></path>
<path d="M0 0L0 450.5375061035156Q158.3000030517578 478.34429931640625 316.6000061035156 451.46405029296875T633.2000122070312 441.66595458984375T949.7999877929688 418.5579528808594T1266.4000244140625 420.1517333984375T1583 474.2543640136719L1583 0z" fill="url(#lg-0.20758967622436175)" opacity="0.4" style="opacity:0.4;animation-play-state:paused" ></path>
<path d="M0 0L0 457.7649841308594Q158.3000030517578 437.12213134765625 316.6000061035156 414.2162780761719T633.2000122070312 431.49908447265625T949.7999877929688 447.3077392578125T1266.4000244140625 414.5989990234375T1583 399.3685607910156L1583 0z" fill="url(#lg-0.20758967622436175)" opacity="0.4" style="opacity:0.4;animation-play-state:paused" ></path>
<path d="M0 0L0 478.85711669921875Q158.3000030517578 468.9028625488281 316.6000061035156 451.49127197265625T633.2000122070312 491.777587890625T949.7999877929688 443.13916015625T1266.4000244140625 461.66278076171875T1583 437.8684997558594L1583 0z" fill="url(#lg-0.20758967622436175)" opacity="0.4" style="opacity:0.4;animation-play-state:paused" ></path>
<path d="M0 0L0 413.2149353027344Q158.3000030517578 434.12060546875 316.6000061035156 403.4307861328125T633.2000122070312 438.955078125T949.7999877929688 451.9959716796875T1266.4000244140625 444.42425537109375T1583 403.0859069824219L1583 0z" fill="url(#lg-0.20758967622436175)" opacity="0.4" style="opacity:0.4;animation-play-state:paused" ></path></g></svg>